<?xml version="1.0" encoding="utf-8"?>
<!-- Generator: Adobe Illustrator 21.0.0, SVG Export Plug-In . SVG Version: 6.00 Build 0)  -->
<svg version="1.1" id="图层_1" xmlns="http://www.w3.org/2000/svg" xmlns:xlink="http://www.w3.org/1999/xlink" x="0px" y="0px"
	 viewBox="0 0 90 90" style="enable-background:new 0 0 90 90;" xml:space="preserve">
<style type="text/css">
	.st0{opacity:1;fill:#1DA1F5;enable-background:new    ;}
	.st1{opacity:1;fill:#1DA1F5;enable-background:new    ;}
	<!-- .st2{opacity:0.8;fill:#FE87B4;enable-background:new    ;} -->
	.st2{opacity:1;fill:#fff;enable-background:new    ;}
</style>
<circle id="椭圆_1_拷贝_2" class="st0" cx="45" cy="45" r="45"/>
<circle id="椭圆_1_拷贝_2-2" class="st1" cx="45" cy="45" r="39.6"/>
<path id="WE_拷贝" class="st2" d="M41,55c-2,1.7-4.8,2.5-8.5,2.5c-3,0.2-6-0.7-8.4-2.5c-1.5-1.1-2.4-2.8-2.5-4.7
	c0-0.5,0.3-1,0.8-1.3c0.6-0.4,1.3-0.5,1.9-0.5c0.7,0,1.3,0.2,1.9,0.5c0.5,0.2,0.8,0.7,0.8,1.3c0,1.1,0.6,2.1,1.5,2.6
	c1.2,0.7,2.6,1,3.9,1c1.4,0.1,2.8-0.3,3.9-1c0.9-0.5,1.5-1.5,1.5-2.6c0-0.5,0.3-1,0.8-1.3c0.6-0.4,1.3-0.5,1.9-0.5
	c0.7,0,1.3,0.2,1.9,0.5c0.5,0.2,0.8,0.7,0.8,1.3C43.3,52.2,42.5,53.9,41,55L41,55L41,55z M21.6,34.2c0-0.5,0.3-1,0.8-1.3
	c0.6-0.4,1.3-0.5,1.9-0.5c0.7,0,1.3,0.2,1.9,0.5c0.5,0.2,0.8,0.7,0.8,1.3v10.7c0,0.5-0.3,1-0.8,1.3c-0.6,0.4-1.3,0.5-1.9,0.5
	c-0.7,0-1.4-0.2-2-0.5c-0.5-0.3-0.7-0.7-0.8-1.3L21.6,34.2L21.6,34.2z M43.4,44.9c0,0.5-0.3,1-0.8,1.3c-0.6,0.4-1.3,0.5-1.9,0.5
	c-0.7,0-1.4-0.2-2-0.5c-0.5-0.3-0.7-0.7-0.8-1.3V34.2c0-0.5,0.3-1,0.8-1.3c0.6-0.4,1.3-0.5,1.9-0.5c0.7,0,1.3,0.2,1.9,0.5
	c0.5,0.2,0.8,0.7,0.8,1.3L43.4,44.9L43.4,44.9z M29.8,34.2c0-0.5,0.3-1,0.8-1.3c0.6-0.4,1.3-0.5,1.9-0.5c0.7,0,1.3,0.2,1.9,0.5
	c0.5,0.2,0.8,0.7,0.8,1.3v16.1c0,0.5-0.3,1-0.8,1.3c-0.6,0.4-1.3,0.5-1.9,0.5c-0.7,0-1.4-0.2-2-0.5c-0.5-0.3-0.7-0.7-0.8-1.3
	L29.8,34.2L29.8,34.2z M53.5,37c-1.4,0.9-1.9,2.7-1,4.2c0.3,0.4,0.6,0.8,1.1,1.1c1.2,0.7,2.6,1,3.9,1l0.5,0l0.5,0.1
	c1.1,0.3,1.7,0.9,1.7,1.6c0,0.5-0.3,1-0.8,1.3c-0.5,0.4-1.2,0.5-1.8,0.5c-1.1,0-2.3,0.1-3.3,0.5c-1.3,0.4-2.3,1.6-2.3,3
	c0,1.1,0.6,2.1,1.5,2.6c1.2,0.7,2.6,1,3.9,1c0.7,0,1.3,0.2,1.9,0.5c0.7,0.3,1,1.1,0.7,1.8c-0.1,0.3-0.4,0.5-0.7,0.7
	c-0.6,0.4-1.3,0.5-1.9,0.5c-2.5,0.1-4.9-0.5-7.1-1.6c-2.5-1.3-3.8-3.2-3.8-5.6c0-1.1,0.3-2.3,1-3.2c0.7-0.9,1.5-1.6,2.5-2.1
	c-1-0.6-1.8-1.3-2.5-2.2c-0.7-0.9-1-2-1-3.2c0-2.3,1.3-4.2,3.8-5.5c2.2-1.1,4.6-1.6,7.1-1.6c0.7,0,1.3,0.2,1.9,0.5
	c0.7,0.3,1,1.1,0.7,1.8c-0.1,0.3-0.4,0.5-0.7,0.7c-0.6,0.4-1.3,0.5-1.9,0.5C56.1,35.9,54.7,36.3,53.5,37L53.5,37z M67.6,57
	c-0.6,0.4-1.3,0.5-1.9,0.5c-0.7,0-1.4-0.2-2-0.5c-0.5-0.3-0.7-0.7-0.8-1.3c0-0.5,0.3-1,0.8-1.3c0.6-0.4,1.3-0.5,1.9-0.5
	c0.7,0,1.3,0.2,1.9,0.5c0.7,0.3,1,1.1,0.7,1.8C68.2,56.6,67.9,56.8,67.6,57z M67.6,35.5C67,35.8,66.4,36,65.7,36
	c-0.7,0-1.4-0.2-2-0.5c-0.5-0.3-0.7-0.7-0.8-1.3c0-0.5,0.3-1,0.8-1.3c0.6-0.4,1.3-0.5,1.9-0.5c0.7,0,1.3,0.2,1.9,0.5
	c0.7,0.3,1,1.1,0.7,1.8C68.2,35.1,67.9,35.3,67.6,35.5z"/>
</svg>
